# xmcd
#
# Track frame offsets:
#	150
#	12922
#	26469
#	38577
#	53447
#	67037
#	77672
#	88215
#	101247
#	114150
#
# Disc length: 1706
#
# Revision: 1
# Processed by: cddbd v1.5.1PL0 Copyright (c) Steve Scherf et al.
# Submitted via: dBpowerAMP V4.0
# Normalized: r0:TDELIM( - )
#
DISCID=7106a80a
DTITLE=Various Artist - Real 60s R&B Disc 2
DYEAR=1900
DGENRE=R&B
TTITLE0=Lee Dorsey - Ride Your Pony
TTITLE1=James and Bobby Purify - I'm Your Puppet
TTITLE2=James Carr - Pouring Water On A Drowning Man
TTITLE3=Solomon Burke - Proud Mary
TTITLE4=Five Stairsteps - World Of Fantasy
TTITLE5=Metros - Sweetest One
TTITLE6=Viscounts - Night Train
TTITLE7=Little Caeser and Consuls - (My Girl) Sloopy
TTITLE8=Brook Benton - Mother Nature Father Time
TTITLE9=O'Jays - I'll Be Sweeter Tomorrow (Than I Was Today)
EXTD=
EXTT0=
EXTT1=
EXTT2=
EXTT3=
EXTT4=
EXTT5=
EXTT6=
EXTT7=
EXTT8=
EXTT9=
PLAYORDER=
